<svg width="32" height="32" viewBox="0 0 32 32" fill="none" xmlns="http://www.w3.org/2000/svg">
<g clip-path="url(#clip0_7080_12639)">
<path d="M16 4C9.37284 4 4 9.37284 4 16C4 21.0835 7.16247 25.4301 11.6267 27.1783C11.522 26.2291 11.4272 24.7684 11.6681 23.7323C11.8864 22.796 13.0756 17.7679 13.0756 17.7679C13.0756 17.7679 12.717 17.0489 12.717 15.9862C12.717 14.318 13.6839 13.0716 14.8879 13.0716C15.9121 13.0716 16.4059 13.84 16.4059 14.7615C16.4059 15.7906 15.7501 17.3304 15.4123 18.7565C15.1299 19.9506 16.0109 20.9254 17.1891 20.9254C19.3225 20.9254 20.961 18.6765 20.961 15.4301C20.961 12.557 18.8968 10.5481 15.9486 10.5481C12.5343 10.5481 10.5304 13.1091 10.5304 15.756C10.5304 16.7872 10.9274 17.8933 11.4232 18.4948C11.521 18.6133 11.5358 18.718 11.5062 18.8385C11.4153 19.2178 11.2128 20.0326 11.1733 20.1995C11.121 20.4188 10.9995 20.4662 10.7723 20.3605C9.27309 19.6632 8.33679 17.4716 8.33679 15.7116C8.33679 11.9259 11.0874 8.45037 16.2657 8.45037C20.4286 8.45037 23.6632 11.4163 23.6632 15.3807C23.6632 19.3452 21.0558 22.8444 17.436 22.8444C16.2202 22.8444 15.0765 22.2123 14.6854 21.4667C14.6854 21.4667 14.084 23.758 13.9378 24.319C13.6672 25.361 12.9353 26.6677 12.4464 27.4647C13.5694 27.8123 14.7625 28 15.999 28C22.6262 28 27.999 22.6272 27.999 16C27.999 9.37284 22.6272 4 16 4Z" fill="#242424"/>
</g>
<path d="M22.7117 10.7984C23.5448 10.7984 24.2202 10.1229 24.2202 9.2898C24.2202 8.45665 23.5448 7.78125 22.7117 7.78125C21.8785 7.78125 21.2031 8.45665 21.2031 9.2898C21.2031 10.1229 21.8785 10.7984 22.7117 10.7984Z" fill="#242424"/>
<defs>
<clipPath id="clip0_7080_12639">
<rect width="24" height="24" fill="white" transform="translate(4 4)"/>
</clipPath>
</defs>
</svg>
