<svg width="32" height="32" viewBox="0 0 32 32" fill="none" xmlns="http://www.w3.org/2000/svg">
<path d="M25.2143 11.2739C25.2284 11.4782 25.2284 11.6825 25.2284 11.8886C25.2284 18.1712 20.4457 25.4169 11.7002 25.4169V25.4131C9.11673 25.4169 6.58695 24.6769 4.41211 23.2816C4.78776 23.3268 5.1653 23.3494 5.54378 23.3503C7.68472 23.3522 9.76447 22.6339 11.4488 21.3111C9.41424 21.2725 7.63012 19.9459 7.00685 18.0093C7.71956 18.1467 8.45392 18.1185 9.15345 17.9274C6.9353 17.4792 5.33948 15.5303 5.33948 13.267C5.33948 13.2463 5.33948 13.2265 5.33948 13.2067C6.0004 13.5749 6.74041 13.7792 7.49737 13.8018C5.4082 12.4055 4.76423 9.62625 6.02582 7.4533C8.4398 10.4237 12.0014 12.2295 15.8248 12.4206C15.4416 10.7692 15.9651 9.03876 17.2003 7.87791C19.1153 6.07778 22.1272 6.17005 23.9273 8.08409C24.9921 7.87414 26.0127 7.48342 26.9466 6.92983C26.5917 8.03043 25.8489 8.96533 24.8565 9.55941C25.799 9.44831 26.7197 9.19599 27.5869 8.81092C26.9485 9.76747 26.1445 10.6007 25.2143 11.2739Z" fill="#242424"/>
</svg>
