<svg width="28" height="29" viewBox="0 0 28 29" fill="none" xmlns="http://www.w3.org/2000/svg">
<g clip-path="url(#clip0_7080_12919)">
<path d="M14 4C8.20123 4 3.5 8.70123 3.5 14.5C3.5 18.948 6.26716 22.7514 10.1733 24.281C10.0817 23.4505 9.99877 22.1723 10.2096 21.2658C10.4006 20.4465 11.4411 16.0469 11.4411 16.0469C11.4411 16.0469 11.1274 15.4178 11.1274 14.4879C11.1274 13.0283 11.9735 11.9377 13.0269 11.9377C13.9231 11.9377 14.3552 12.61 14.3552 13.4163C14.3552 14.3168 13.7814 15.6641 13.4858 16.912C13.2386 17.9568 14.0095 18.8098 15.0405 18.8098C16.9072 18.8098 18.3409 16.842 18.3409 14.0014C18.3409 11.4874 16.5347 9.72963 13.9551 9.72963C10.9675 9.72963 9.21407 11.9705 9.21407 14.2865C9.21407 15.1888 9.56148 16.1567 9.99531 16.683C10.0809 16.7867 10.0938 16.8783 10.0679 16.9837C9.9884 17.3156 9.81123 18.0285 9.77667 18.1746C9.73086 18.3664 9.62457 18.4079 9.4258 18.3154C8.11395 17.7053 7.29469 15.7877 7.29469 14.2477C7.29469 10.9352 9.70148 7.89407 14.2325 7.89407C17.8751 7.89407 20.7053 10.4893 20.7053 13.9581C20.7053 17.427 18.4238 20.4889 15.2565 20.4889C14.1927 20.4889 13.192 19.9358 12.8498 19.2833C12.8498 19.2833 12.3235 21.2883 12.1956 21.7791C11.9588 22.6909 11.3184 23.8342 10.8906 24.5316C11.8732 24.8358 12.9172 25 13.9991 25C19.7979 25 24.4991 20.2988 24.4991 14.5C24.4991 8.70123 19.7988 4 14 4Z" fill="#242424"/>
</g>
<path d="M19.8727 9.94856C20.6017 9.94856 21.1927 9.35758 21.1927 8.62858C21.1927 7.89957 20.6017 7.30859 19.8727 7.30859C19.1437 7.30859 18.5527 7.89957 18.5527 8.62858C18.5527 9.35758 19.1437 9.94856 19.8727 9.94856Z" fill="#242424"/>
<defs>
<clipPath id="clip0_7080_12919">
<rect width="21" height="21" fill="white" transform="translate(3.5 4)"/>
</clipPath>
</defs>
</svg>
