<svg width="28" height="29" viewBox="0 0 28 29" fill="none" xmlns="http://www.w3.org/2000/svg">
<path fill-rule="evenodd" clip-rule="evenodd" d="M23.299 6.83454C24.3238 7.1029 25.1292 7.89074 25.4035 8.89326C25.8992 10.7085 25.9012 14.4982 25.9012 14.4982C25.9012 14.4982 25.9012 18.2878 25.4035 20.1031C25.1292 21.1056 24.3238 21.8935 23.299 22.1618C21.4435 22.6487 13.9994 22.6487 13.9994 22.6487C13.9994 22.6487 6.55544 22.6487 4.69982 22.1618C3.67503 21.8935 2.86969 21.1056 2.59536 20.1031C2.09766 18.2878 2.09766 14.4982 2.09766 14.4982C2.09766 14.4982 2.09766 10.7085 2.59536 8.89326C2.86969 7.89074 3.67503 7.1029 4.69982 6.83454C6.55544 6.34766 13.9994 6.34766 13.9994 6.34766C13.9994 6.34766 21.4435 6.34766 23.299 6.83454ZM17.8013 14.4965L11.6172 17.989V11.0039L17.8013 14.4965Z" fill="#242424"/>
</svg>
