<svg width="28" height="29" viewBox="0 0 28 29" fill="none" xmlns="http://www.w3.org/2000/svg">
<path d="M22.0632 10.3636C22.0756 10.5424 22.0756 10.7212 22.0756 10.9016C22.0756 16.3988 17.8907 22.7388 10.2384 22.7388V22.7355C7.97787 22.7388 5.76431 22.0913 3.86133 20.8704C4.19003 20.91 4.52037 20.9297 4.85154 20.9306C6.72487 20.9322 8.54465 20.3036 10.0184 19.1462C8.23819 19.1124 6.67709 17.9517 6.13173 16.2571C6.75535 16.3774 7.39791 16.3527 8.01 16.1855C6.06912 15.7933 4.67277 14.0881 4.67277 12.1076C4.67277 12.0895 4.67277 12.0722 4.67277 12.0549C5.25108 12.377 5.89859 12.5558 6.56093 12.5756C4.73291 11.3539 4.16943 8.92199 5.27333 7.02066C7.38556 9.61975 10.502 11.1998 13.8475 11.367C13.5122 9.92209 13.9702 8.40794 15.051 7.39219C16.7267 5.81708 19.362 5.89781 20.9371 7.5726C21.8688 7.3889 22.7618 7.04702 23.579 6.56262C23.2685 7.52565 22.6185 8.34368 21.7502 8.8635C22.5748 8.76629 23.3805 8.54552 24.1392 8.20858C23.5807 9.04556 22.8772 9.77463 22.0632 10.3636Z" fill="#242424"/>
</svg>
