<svg width="28" height="29" viewBox="0 0 28 29" fill="none" xmlns="http://www.w3.org/2000/svg">
<path d="M14 5.48369C16.9373 5.48369 17.2849 5.49504 18.4451 5.54787C19.5175 5.59678 20.0999 5.7758 20.4877 5.92644C20.9661 6.10258 21.3988 6.38386 21.754 6.74952C22.1196 7.1047 22.4009 7.53743 22.577 8.0158C22.7277 8.40354 22.9067 8.98603 22.9556 10.0584C23.0084 11.2186 23.0198 11.5662 23.0198 14.5035C23.0198 17.4408 23.0084 17.7884 22.9556 18.9486C22.9067 20.021 22.7277 20.6034 22.577 20.9912C22.3938 21.4655 22.1135 21.8962 21.754 22.2557C21.3944 22.6152 20.9637 22.8956 20.4894 23.0788C20.1017 23.2294 19.5192 23.4085 18.4468 23.4574C17.2871 23.5102 16.9391 23.5216 14.0017 23.5216C11.0644 23.5216 10.7164 23.5102 9.55668 23.4574C8.48428 23.4085 7.90179 23.2294 7.51405 23.0788C7.03568 22.9027 6.60295 22.6214 6.24778 22.2557C5.88211 21.9005 5.60084 21.4678 5.4247 20.9894C5.27405 20.6017 5.09503 20.0192 5.04613 18.9468C4.99329 17.7866 4.98194 17.4391 4.98194 14.5017C4.98194 11.5644 4.99329 11.2169 5.04613 10.0567C5.09503 8.98428 5.27405 8.40179 5.4247 8.01405C5.60084 7.53568 5.88211 7.10295 6.24778 6.74778C6.60295 6.38211 7.03568 6.10084 7.51405 5.9247C7.90179 5.77406 8.48428 5.59503 9.55668 5.54613C10.7169 5.49329 11.0644 5.48194 14.0017 5.48194L14 5.48369ZM14.0017 3.5C11.0142 3.5 10.6396 3.51266 9.4663 3.56637C8.29303 3.62008 7.49396 3.8074 6.79533 4.07899C6.06115 4.35537 5.396 4.78837 4.84614 5.34789C4.28663 5.89775 3.85362 6.5629 3.57725 7.29708C3.30565 7.99571 3.11964 8.79652 3.06637 9.96717C3.0131 11.1378 3 11.5142 3 14.5017C3 17.4893 3.01266 17.8639 3.06637 19.0372C3.12008 20.2105 3.30565 21.0078 3.57725 21.7064C3.85373 22.4403 4.28673 23.1051 4.84614 23.6547C5.39581 24.2146 6.06101 24.6478 6.79533 24.9241C7.49396 25.1961 8.29477 25.3821 9.46542 25.4354C10.6361 25.4886 11.0133 25.5017 14.0009 25.5017C16.9884 25.5017 17.363 25.4891 18.5363 25.4354C19.7096 25.3817 20.506 25.1961 21.2047 24.9241C21.9356 24.6416 22.5995 24.2095 23.1536 23.6554C23.7077 23.1012 24.1399 22.4374 24.4223 21.7064C24.6943 21.0078 24.8804 20.207 24.9336 19.0363C24.9869 17.8657 25 17.4884 25 14.5009C25 11.5133 24.9873 11.1387 24.9336 9.96543C24.8799 8.79216 24.6943 7.99571 24.4223 7.29708C24.1462 6.56315 23.7133 5.89827 23.1539 5.34876C22.6041 4.78893 21.9389 4.35562 21.2047 4.07899C20.506 3.8074 19.7052 3.62139 18.5346 3.56812C17.3639 3.51485 16.9875 3.50175 14 3.50175L14.0017 3.5Z" fill="#242424"/>
<path d="M14 8.85547C12.8829 8.85547 11.7908 9.18674 10.8619 9.80741C9.93302 10.4281 9.20905 11.3102 8.78153 12.3424C8.35401 13.3745 8.24215 14.5102 8.4601 15.6059C8.67805 16.7016 9.21601 17.708 10.006 18.498C10.7959 19.2879 11.8024 19.8259 12.8981 20.0439C13.9938 20.2618 15.1295 20.1499 16.1616 19.7224C17.1937 19.2949 18.0759 18.5709 18.6965 17.642C19.3172 16.7132 19.6485 15.6211 19.6485 14.5039C19.6485 13.7621 19.5025 13.0276 19.2186 12.3423C18.9348 11.657 18.5187 11.0343 17.9942 10.5097C17.4697 9.98522 16.847 9.56916 16.1617 9.28532C15.4763 9.00147 14.7418 8.85541 14 8.85547ZM14 18.1718C13.2746 18.1718 12.5655 17.9566 11.9623 17.5536C11.3591 17.1506 10.889 16.5778 10.6114 15.9075C10.3338 15.2373 10.2611 14.4999 10.4027 13.7884C10.5442 13.0769 10.8935 12.4233 11.4065 11.9104C11.9194 11.3974 12.573 11.0481 13.2845 10.9066C13.996 10.765 14.7334 10.8377 15.4036 11.1153C16.0739 11.3929 16.6467 11.863 17.0497 12.4662C17.4527 13.0694 17.6679 13.7785 17.6679 14.5039C17.6679 15.4767 17.2814 16.4096 16.5936 17.0975C15.9057 17.7853 14.9728 18.1718 14 18.1718Z" fill="#242424"/>
<path d="M19.8727 9.94856C20.6017 9.94856 21.1927 9.35758 21.1927 8.62858C21.1927 7.89957 20.6017 7.30859 19.8727 7.30859C19.1437 7.30859 18.5527 7.89957 18.5527 8.62858C18.5527 9.35758 19.1437 9.94856 19.8727 9.94856Z" fill="#242424"/>
</svg>
