<svg width="130" height="28" viewBox="0 0 130 28" fill="none" xmlns="http://www.w3.org/2000/svg">
<path d="M38.9163 25.668C39.6363 25.668 40.1403 25.5 40.4283 25.164C40.7163 24.828 40.8843 24.36 40.9323 23.76C41.0043 23.16 41.0403 22.464 41.0403 21.672V4.176C41.0643 3.744 41.1003 3.288 41.1483 2.808C40.7403 2.832 40.3083 2.856 39.8523 2.88C39.3963 2.88 38.9883 2.892 38.6283 2.916V1.008C39.7083 1.008 40.5603 0.960001 41.1843 0.864002C41.8323 0.744001 42.3243 0.612 42.6603 0.468C43.0203 0.324001 43.2843 0.168001 43.4523 0H44.8203V22.716C44.8203 23.148 44.8083 23.592 44.7843 24.048C44.7603 24.48 44.7243 24.924 44.6763 25.38C45.0603 25.356 45.4443 25.344 45.8283 25.344C46.2363 25.32 46.6083 25.296 46.9443 25.272V27.18H38.9163V25.668Z" fill="white"/>
<path d="M13.9079 6.44399C14.4119 7.42799 14.7239 8.53199 14.8439 9.75599H16.4999V1.69199H14.3399L14.4839 3.20399C13.5479 2.53199 12.5039 2.06399 11.3519 1.79999C10.2239 1.53599 9.20389 1.40399 8.29189 1.40399C6.77989 1.40399 5.51989 1.61999 4.51189 2.05199C3.52789 2.45999 2.74789 2.99999 2.17189 3.67199C1.59589 4.34399 1.18789 5.05199 0.947891 5.79599C0.707891 6.53999 0.587891 7.24799 0.587891 7.91999C0.587891 9.07199 0.803891 10.08 1.23589 10.944C1.66789 11.784 2.25589 12.516 2.99989 13.14C3.74389 13.764 4.57189 14.316 5.48389 14.796C6.41989 15.276 7.37989 15.732 8.36389 16.164C9.34789 16.596 10.2839 17.052 11.1719 17.532C12.0839 18.012 12.8279 18.588 13.4039 19.26C14.0039 19.932 14.3039 20.76 14.3039 21.744C14.3039 22.584 14.0879 23.316 13.6559 23.94C13.2239 24.564 12.6359 25.044 11.8919 25.38C11.1479 25.716 10.3199 25.884 9.40789 25.884C7.58389 25.884 6.01189 25.356 4.69189 24.3C3.39589 23.22 2.65189 21.636 2.45989 19.548H0.731891L0.875891 27.468H3.07189L2.89189 25.956C3.82789 26.532 4.85989 26.976 5.98789 27.288C7.13989 27.6 8.23189 27.756 9.26389 27.756C11.0879 27.756 12.6359 27.456 13.9079 26.856C15.2039 26.256 16.1999 25.428 16.8959 24.372C17.5919 23.316 17.9399 22.116 17.9399 20.772C17.9399 19.62 17.7119 18.624 17.2559 17.784C16.7999 16.92 16.1879 16.188 15.4199 15.588C14.6519 14.964 13.7999 14.412 12.8639 13.932C11.9279 13.452 11.0039 13.02 10.0919 12.636C8.96389 12.132 7.94389 11.628 7.03189 11.124C6.14389 10.62 5.43589 10.056 4.90789 9.43199C4.37989 8.78399 4.11589 7.99199 4.11589 7.05599C4.11589 5.99999 4.51189 5.09999 5.30389 4.35599C6.09589 3.61199 7.16389 3.23999 8.50789 3.23999C9.82789 3.21599 10.9319 3.50399 11.8199 4.10399C12.7079 4.67999 13.4039 5.45999 13.9079 6.44399Z" fill="white"/>
<path fill-rule="evenodd" clip-rule="evenodd" d="M24.2532 26.604C25.6212 27.372 27.1572 27.756 28.8612 27.756C30.5892 27.756 32.1252 27.324 33.4692 26.46C34.8372 25.596 35.9172 24.408 36.7092 22.896C37.5012 21.384 37.8972 19.68 37.8972 17.784C37.8972 15.984 37.4892 14.4 36.6732 13.032C35.8812 11.64 34.8012 10.56 33.4332 9.79199C32.0652 8.99999 30.5292 8.60399 28.8252 8.60399C27.1452 8.60399 25.6212 9.03599 24.2532 9.89999C22.8852 10.764 21.7932 11.952 20.9772 13.464C20.1852 14.952 19.7892 16.668 19.7892 18.612C19.7892 20.412 20.1852 22.008 20.9772 23.4C21.7932 24.768 22.8852 25.836 24.2532 26.604ZM31.8132 24.876C31.1652 25.572 30.2652 25.932 29.1132 25.956C27.9372 25.956 26.9652 25.548 26.1972 24.732C25.4532 23.916 24.9012 22.872 24.5412 21.6C24.1812 20.328 24.0012 18.984 24.0012 17.568C24.0012 16.344 24.1572 15.192 24.4692 14.112C24.8052 13.008 25.3212 12.108 26.0172 11.412C26.7372 10.716 27.6612 10.368 28.7892 10.368C29.6772 10.344 30.4332 10.584 31.0572 11.088C31.6812 11.568 32.1852 12.216 32.5692 13.032C32.9532 13.848 33.2292 14.76 33.3972 15.768C33.5892 16.752 33.6852 17.76 33.6852 18.792C33.6852 19.968 33.5412 21.108 33.2532 22.212C32.9652 23.292 32.4852 24.18 31.8132 24.876Z" fill="white"/>
<path d="M50.1259 25.164C49.8379 25.5 49.3339 25.668 48.6139 25.668V27.18H56.6419V25.272C56.3059 25.296 55.9339 25.32 55.5259 25.344C55.1419 25.344 54.7579 25.356 54.3739 25.38C54.4219 24.924 54.4579 24.48 54.4819 24.048C54.5059 23.592 54.5179 23.148 54.5179 22.716V8.82H53.1499C52.9819 8.988 52.7179 9.144 52.3579 9.288C52.0219 9.432 51.5299 9.564 50.8819 9.684C50.2579 9.78 49.4059 9.828 48.3259 9.828V11.736C48.7099 11.712 49.1299 11.7 49.5859 11.7C50.0419 11.676 50.4739 11.652 50.8819 11.628C50.8339 12.108 50.7979 12.564 50.7739 12.996C50.7499 13.404 50.7379 13.812 50.7379 14.22V21.672C50.7379 22.464 50.7019 23.16 50.6299 23.76C50.5819 24.36 50.4139 24.828 50.1259 25.164Z" fill="white"/>
<path d="M64.9674 27.7561C64.3674 27.7561 63.7674 27.6721 63.1674 27.5041C62.5674 27.3601 62.0034 27.0601 61.4754 26.6041C60.9714 26.1241 60.5754 25.4401 60.2874 24.5521C59.9994 23.6641 59.8554 22.4881 59.8554 21.0241L59.9274 11.1961H57.2634V9.18006C57.9114 9.15606 58.5714 8.91606 59.2434 8.46006C59.9154 8.00406 60.5034 7.39206 61.0074 6.62406C61.5114 5.85606 61.8594 5.02806 62.0514 4.14006H63.7434V9.18006H69.2874V9.18475C70.9333 9.18461 74.2564 9.17526 75.6029 8.8219L75.6048 8.82006H76.9728V19.8001C76.9728 21.6961 77.2368 23.1121 77.7648 24.0481C78.2928 24.9841 79.1808 25.4401 80.4288 25.4161C81.2448 25.4161 82.0248 25.1761 82.7688 24.6961C83.5368 24.2161 84.1608 23.6521 84.6408 23.0041V14.4721C84.6408 13.9441 84.6528 13.4521 84.6768 12.9961C84.7008 12.5161 84.7488 12.0601 84.8208 11.6281C84.3888 11.6521 83.9448 11.6761 83.4888 11.7001C83.0328 11.7001 82.6128 11.7121 82.2288 11.7361V9.82806H83.2728C84.3288 9.82806 85.1568 9.72006 85.7568 9.50406C86.3568 9.28806 86.7888 9.06006 87.0528 8.82006H88.4208L88.3848 22.0681C88.3848 22.4521 88.3728 22.9801 88.3488 23.6521C88.3248 24.3001 88.2888 24.8761 88.2408 25.3801C88.6488 25.3561 89.0688 25.3321 89.5008 25.3081C89.9568 25.2841 90.3768 25.2721 90.7608 25.2721V27.1801H85.0368C84.9888 26.7961 84.9408 26.4361 84.8928 26.1001C84.8688 25.7641 84.8328 25.4401 84.7848 25.1281C84.0408 25.8241 83.1768 26.4361 82.1928 26.9641C81.2088 27.4921 80.1768 27.7561 79.0968 27.7561C77.7528 27.7561 76.6368 27.5041 75.7488 27.0001C74.8848 26.4961 74.2368 25.6681 73.8048 24.5161C73.3728 23.3401 73.1568 21.7921 73.1568 19.8721V13.2583C73.1628 12.934 73.1811 12.5637 73.221 12.1937C73.2423 12.0104 73.2676 11.8292 73.2971 11.6501C73.3344 11.4392 73.3807 11.2364 73.4379 11.0511H69.2874L63.7434 11.1241L63.6714 20.7361C63.6714 21.6481 63.7434 22.4521 63.8874 23.1481C64.0554 23.8201 64.3194 24.3481 64.6794 24.7321C65.0634 25.0921 65.5794 25.2721 66.2274 25.2721C66.7794 25.2721 67.3434 25.1041 67.9194 24.7681C68.5194 24.4321 69.0834 23.8801 69.6114 23.1121L70.8354 24.1921C70.2594 25.0321 69.6834 25.6921 69.1074 26.1721C68.5314 26.6521 67.9794 27.0001 67.4514 27.2161C66.9234 27.4561 66.4434 27.6001 66.0114 27.6481C65.5794 27.7201 65.2314 27.7561 64.9674 27.7561Z" fill="white"/>
<path fill-rule="evenodd" clip-rule="evenodd" d="M99.7153 27.7561C98.2513 27.7561 96.9433 27.3961 95.7913 26.6761C94.6633 25.9321 93.7633 24.8761 93.0913 23.5081C92.4433 22.1401 92.1193 20.5321 92.1193 18.6841C92.1193 16.7161 92.5033 14.9761 93.2713 13.4641C94.0393 11.9521 95.1193 10.7641 96.5113 9.90006C97.9033 9.03606 99.4873 8.60406 101.263 8.60406C102.007 8.60406 102.715 8.70006 103.387 8.89206C104.083 9.06006 104.659 9.26406 105.115 9.50406V5.40006C105.115 5.04006 105.127 4.64406 105.151 4.21206C105.175 3.75606 105.211 3.28806 105.259 2.80806C104.827 2.83206 104.383 2.85606 103.927 2.88006C103.471 2.90406 103.063 2.91606 102.703 2.91606V1.00806C103.783 1.00806 104.635 0.960062 105.259 0.864063C105.907 0.744062 106.399 0.612061 106.735 0.468061C107.095 0.324062 107.359 0.168062 107.527 6.10352e-05H108.859V22.7161C108.859 23.0761 108.847 23.4841 108.823 23.9401C108.799 24.3961 108.763 24.8761 108.715 25.3801L110.011 25.3081C110.443 25.2841 110.839 25.2721 111.199 25.2721V27.1801H105.475C105.427 26.8441 105.379 26.5321 105.331 26.2441L105.259 25.3801C104.539 26.1481 103.711 26.7361 102.775 27.1441C101.839 27.5521 100.819 27.7561 99.7153 27.7561ZM101.191 25.4881C101.935 25.4881 102.655 25.2841 103.351 24.8761C104.071 24.4681 104.659 23.9521 105.115 23.3281V11.4841C104.659 11.1481 104.119 10.8961 103.495 10.7281C102.895 10.5361 102.271 10.4401 101.623 10.4401C100.447 10.4401 99.4513 10.7881 98.6353 11.4841C97.8433 12.1561 97.2553 13.0801 96.8713 14.2561C96.4873 15.4321 96.3073 16.7761 96.3313 18.2881C96.3793 19.5841 96.5833 20.7841 96.9433 21.8881C97.3033 22.9921 97.8313 23.8681 98.5273 24.5161C99.2473 25.1641 100.135 25.4881 101.191 25.4881Z" fill="white"/>
<path fill-rule="evenodd" clip-rule="evenodd" d="M116.848 26.6041C118.192 27.3721 119.704 27.7561 121.384 27.7561C122.2 27.7561 123.088 27.6241 124.048 27.3601C125.032 27.1201 125.992 26.7001 126.928 26.1001C127.864 25.4761 128.692 24.6241 129.412 23.5441L128.296 22.5721C127.84 23.1721 127.276 23.6881 126.604 24.1201C125.956 24.5521 125.26 24.8881 124.516 25.1281C123.796 25.3441 123.112 25.4521 122.464 25.4521C121.12 25.4521 120.028 25.1041 119.188 24.4081C118.348 23.7121 117.736 22.7281 117.352 21.4561C116.992 20.1841 116.812 18.7321 116.812 17.1001L129.196 16.8841C129.196 15.3961 128.992 14.1361 128.584 13.1041C128.176 12.0481 127.612 11.1961 126.892 10.5481C126.196 9.87606 125.392 9.38406 124.48 9.07206C123.592 8.76006 122.644 8.60406 121.636 8.60406C119.836 8.60406 118.252 9.06006 116.884 9.97206C115.516 10.8601 114.448 12.0361 113.68 13.5001C112.936 14.9641 112.564 16.5361 112.564 18.2161C112.564 20.1601 112.948 21.8521 113.716 23.2921C114.484 24.7081 115.528 25.8121 116.848 26.6041ZM125.272 15.2281H116.956C117.22 13.5961 117.76 12.3841 118.576 11.5921C119.392 10.7761 120.436 10.3681 121.708 10.3681C122.524 10.3681 123.196 10.5841 123.724 11.0161C124.252 11.4481 124.636 12.0361 124.876 12.7801C125.14 13.5001 125.272 14.3161 125.272 15.2281Z" fill="white"/>
<path d="M50.1289 3.00848L52.9573 0.180057L55.7858 3.00848L52.9573 5.83691L50.1289 3.00848Z" fill="white"/>
</svg>
